<svg width="24" height="28" viewBox="0 0 24 28" fill="none" xmlns="http://www.w3.org/2000/svg">
<path fill-rule="evenodd" clip-rule="evenodd" d="M1.71369 8.32179C2.66014 8.32179 3.42738 7.56026 3.42738 6.62086C3.42738 5.68146 2.66014 4.91992 1.71369 4.91992C0.767246 4.91992 0 5.68146 0 6.62086C0 7.56026 0.767246 8.32179 1.71369 8.32179Z" fill="white"/>
<path fill-rule="evenodd" clip-rule="evenodd" d="M1.71369 13.2417C2.66014 13.2417 3.42738 12.4802 3.42738 11.5408C3.42738 10.6014 2.66014 9.83984 1.71369 9.83984C0.767246 9.83984 0 10.6014 0 11.5408C0 12.4802 0.767246 13.2417 1.71369 13.2417Z" fill="white"/>
<path fill-rule="evenodd" clip-rule="evenodd" d="M6.67072 13.2417C7.61717 13.2417 8.38441 12.4802 8.38441 11.5408C8.38441 10.6014 7.61717 9.83984 6.67072 9.83984C5.72428 9.83984 4.95703 10.6014 4.95703 11.5408C4.95703 12.4802 5.72428 13.2417 6.67072 13.2417Z" fill="white"/>
<path fill-rule="evenodd" clip-rule="evenodd" d="M21.5399 8.32179C22.4863 8.32179 23.2536 7.56026 23.2536 6.62086C23.2536 5.68146 22.4863 4.91992 21.5399 4.91992C20.5934 4.91992 19.8262 5.68146 19.8262 6.62086C19.8262 7.56026 20.5934 8.32179 21.5399 8.32179Z" fill="white"/>
<path fill-rule="evenodd" clip-rule="evenodd" d="M16.5828 13.2417C17.5293 13.2417 18.2965 12.4802 18.2965 11.5408C18.2965 10.6014 17.5293 9.83984 16.5828 9.83984C15.6364 9.83984 14.8691 10.6014 14.8691 11.5408C14.8691 12.4802 15.6364 13.2417 16.5828 13.2417Z" fill="white"/>
<path fill-rule="evenodd" clip-rule="evenodd" d="M11.6258 18.1616C12.5722 18.1616 13.3395 17.4001 13.3395 16.4607C13.3395 15.5213 12.5722 14.7598 11.6258 14.7598C10.6794 14.7598 9.91211 15.5213 9.91211 16.4607C9.91211 17.4001 10.6794 18.1616 11.6258 18.1616Z" fill="white"/>
<path fill-rule="evenodd" clip-rule="evenodd" d="M21.5399 13.2417C22.4863 13.2417 23.2536 12.4802 23.2536 11.5408C23.2536 10.6014 22.4863 9.83984 21.5399 9.83984C20.5934 9.83984 19.8262 10.6014 19.8262 11.5408C19.8262 12.4802 20.5934 13.2417 21.5399 13.2417Z" fill="white"/>
<path fill-rule="evenodd" clip-rule="evenodd" d="M1.71369 18.1616C2.66014 18.1616 3.42738 17.4001 3.42738 16.4607C3.42738 15.5213 2.66014 14.7598 1.71369 14.7598C0.767246 14.7598 0 15.5213 0 16.4607C0 17.4001 0.767246 18.1616 1.71369 18.1616Z" fill="white"/>
<path fill-rule="evenodd" clip-rule="evenodd" d="M21.5399 18.1616C22.4863 18.1616 23.2536 17.4001 23.2536 16.4607C23.2536 15.5213 22.4863 14.7598 21.5399 14.7598C20.5934 14.7598 19.8262 15.5213 19.8262 16.4607C19.8262 17.4001 20.5934 18.1616 21.5399 18.1616Z" fill="white"/>
<path fill-rule="evenodd" clip-rule="evenodd" d="M1.71369 23.0796C2.66014 23.0796 3.42738 22.3181 3.42738 21.3787C3.42738 20.4393 2.66014 19.6777 1.71369 19.6777C0.767246 19.6777 0 20.4393 0 21.3787C0 22.3181 0.767246 23.0796 1.71369 23.0796Z" fill="white"/>
<path fill-rule="evenodd" clip-rule="evenodd" d="M21.5399 23.0796C22.4863 23.0796 23.2536 22.3181 23.2536 21.3787C23.2536 20.4393 22.4863 19.6777 21.5399 19.6777C20.5934 19.6777 19.8262 20.4393 19.8262 21.3787C19.8262 22.3181 20.5934 23.0796 21.5399 23.0796Z" fill="white"/>
<path fill-rule="evenodd" clip-rule="evenodd" d="M6.67072 8.32179C7.61717 8.32179 8.38441 7.56026 8.38441 6.62086C8.38441 5.68146 7.61717 4.91992 6.67072 4.91992C5.72428 4.91992 4.95703 5.68146 4.95703 6.62086C4.95703 7.56026 5.72428 8.32179 6.67072 8.32179Z" fill="#5A6072"/>
<path fill-rule="evenodd" clip-rule="evenodd" d="M11.6258 8.32179C12.5722 8.32179 13.3395 7.56026 13.3395 6.62086C13.3395 5.68146 12.5722 4.91992 11.6258 4.91992C10.6794 4.91992 9.91211 5.68146 9.91211 6.62086C9.91211 7.56026 10.6794 8.32179 11.6258 8.32179Z" fill="#5A6072"/>
<path fill-rule="evenodd" clip-rule="evenodd" d="M11.6258 3.40187C12.5722 3.40187 13.3395 2.64033 13.3395 1.70093C13.3395 0.761534 12.5722 0 11.6258 0C10.6794 0 9.91211 0.761534 9.91211 1.70093C9.91211 2.64033 10.6794 3.40187 11.6258 3.40187Z" fill="#5A6072"/>
<path fill-rule="evenodd" clip-rule="evenodd" d="M11.6258 13.2417C12.5722 13.2417 13.3395 12.4802 13.3395 11.5408C13.3395 10.6014 12.5722 9.83984 11.6258 9.83984C10.6794 9.83984 9.91211 10.6014 9.91211 11.5408C9.91211 12.4802 10.6794 13.2417 11.6258 13.2417Z" fill="#5A6072"/>
<path fill-rule="evenodd" clip-rule="evenodd" d="M16.5828 8.32179C17.5293 8.32179 18.2965 7.56026 18.2965 6.62086C18.2965 5.68146 17.5293 4.91992 16.5828 4.91992C15.6364 4.91992 14.8691 5.68146 14.8691 6.62086C14.8691 7.56026 15.6364 8.32179 16.5828 8.32179Z" fill="#5A6072"/>
<path fill-rule="evenodd" clip-rule="evenodd" d="M6.67072 18.1616C7.61717 18.1616 8.38441 17.4001 8.38441 16.4607C8.38441 15.5213 7.61717 14.7598 6.67072 14.7598C5.72428 14.7598 4.95703 15.5213 4.95703 16.4607C4.95703 17.4001 5.72428 18.1616 6.67072 18.1616Z" fill="#5A6072"/>
<path fill-rule="evenodd" clip-rule="evenodd" d="M16.5828 18.1616C17.5293 18.1616 18.2965 17.4001 18.2965 16.4607C18.2965 15.5213 17.5293 14.7598 16.5828 14.7598C15.6364 14.7598 14.8691 15.5213 14.8691 16.4607C14.8691 17.4001 15.6364 18.1616 16.5828 18.1616Z" fill="#5A6072"/>
<path fill-rule="evenodd" clip-rule="evenodd" d="M6.67072 23.0796C7.61717 23.0796 8.38441 22.3181 8.38441 21.3787C8.38441 20.4393 7.61717 19.6777 6.67072 19.6777C5.72428 19.6777 4.95703 20.4393 4.95703 21.3787C4.95703 22.3181 5.72428 23.0796 6.67072 23.0796Z" fill="#5A6072"/>
<path fill-rule="evenodd" clip-rule="evenodd" d="M11.6258 23.0796C12.5722 23.0796 13.3395 22.3181 13.3395 21.3787C13.3395 20.4393 12.5722 19.6777 11.6258 19.6777C10.6794 19.6777 9.91211 20.4393 9.91211 21.3787C9.91211 22.3181 10.6794 23.0796 11.6258 23.0796Z" fill="#5A6072"/>
<path fill-rule="evenodd" clip-rule="evenodd" d="M11.6258 27.9995C12.5722 27.9995 13.3395 27.238 13.3395 26.2986C13.3395 25.3592 12.5722 24.5977 11.6258 24.5977C10.6794 24.5977 9.91211 25.3592 9.91211 26.2986C9.91211 27.238 10.6794 27.9995 11.6258 27.9995Z" fill="#5A6072"/>
<path fill-rule="evenodd" clip-rule="evenodd" d="M16.5828 23.0796C17.5293 23.0796 18.2965 22.3181 18.2965 21.3787C18.2965 20.4393 17.5293 19.6777 16.5828 19.6777C15.6364 19.6777 14.8691 20.4393 14.8691 21.3787C14.8691 22.3181 15.6364 23.0796 16.5828 23.0796Z" fill="#5A6072"/>
</svg>
