<svg width="21" height="840" viewBox="0 0 21 840" fill="none" xmlns="http://www.w3.org/2000/svg">
<path d="M4.8 407.7C2.52 403.2 -3.57996e-06 398.1 -3.93402e-06 390C-4.28809e-06 381.9 2.52 376.8 4.8 372.3C6.9 368.4 8.39999 365.4 8.39999 360L20.1 360C20.1 368.22 17.58 373.2 15.3 377.7C13.2 381.6 11.7 384.6 11.7 390C11.7 395.209 13.3133 398.387 15.2876 402.276L15.3 402.3L15.3438 402.386C17.6121 406.863 20.1 411.773 20.1 420C20.1 428.227 17.6121 433.137 15.3438 437.614L15.3 437.7C13.2 441.6 11.7 444.72 11.7 450C11.7 455.28 13.32 458.4 15.3 462.3C17.58 466.8 20.1 471.9 20.1 480L8.4 480C8.4 474.72 6.78001 471.6 4.80001 467.7L4.75621 467.614C2.48786 463.137 -9.51727e-07 458.227 -1.31134e-06 450C-1.67096e-06 441.773 2.48786 436.863 4.75621 432.386L4.8 432.3C6.9 428.4 8.4 425.4 8.4 420C8.39999 414.791 6.78673 411.613 4.81235 407.724L4.8 407.7Z" fill="#FFFCEE"/>
<path d="M4.8 647.7C2.52 643.2 -3.57996e-06 638.1 -3.93402e-06 630C-4.28809e-06 621.9 2.52 616.8 4.8 612.3C6.9 608.4 8.39999 605.4 8.39999 600L20.1 600C20.1 608.22 17.58 613.2 15.3 617.7C13.2 621.6 11.7 624.6 11.7 630C11.7 635.209 13.3133 638.387 15.2876 642.276L15.3 642.3L15.3438 642.386C17.6121 646.863 20.1 651.773 20.1 660C20.1 668.227 17.6121 673.137 15.3438 677.614L15.3 677.7C13.2 681.6 11.7 684.72 11.7 690C11.7 695.28 13.32 698.4 15.3 702.3C17.58 706.8 20.1 711.9 20.1 720L8.4 720C8.4 714.72 6.78001 711.6 4.80001 707.7L4.75621 707.614C2.48786 703.137 -9.51727e-07 698.227 -1.31134e-06 690C-1.67096e-06 681.773 2.48786 676.863 4.75621 672.386L4.8 672.3C6.9 668.4 8.4 665.4 8.4 660C8.39999 654.791 6.78673 651.613 4.81235 647.724L4.8 647.7Z" fill="#FFFCEE"/>
<path d="M4.8 167.7C2.52 163.2 -3.57996e-06 158.1 -3.93402e-06 150C-4.28809e-06 141.9 2.52 136.8 4.8 132.3C6.9 128.4 8.39999 125.4 8.39999 120L20.1 120C20.1 128.22 17.58 133.2 15.3 137.7C13.2 141.6 11.7 144.6 11.7 150C11.7 155.209 13.3133 158.387 15.2876 162.276L15.3 162.3L15.3438 162.386C17.6121 166.863 20.1 171.773 20.1 180C20.1 188.227 17.6121 193.137 15.3438 197.614L15.3 197.7C13.2 201.6 11.7 204.72 11.7 210C11.7 215.28 13.32 218.4 15.3 222.3C17.58 226.8 20.1 231.9 20.1 240L8.4 240C8.4 234.72 6.78001 231.6 4.80001 227.7L4.75621 227.614C2.48786 223.137 -9.51727e-07 218.227 -1.31134e-06 210C-1.67096e-06 201.773 2.48786 196.863 4.75621 192.386L4.8 192.3C6.9 188.4 8.4 185.4 8.4 180C8.39999 174.791 6.78673 171.613 4.81235 167.724L4.8 167.7Z" fill="#FFFCEE"/>
<path d="M4.8 767.7C2.52 763.2 -3.57996e-06 758.1 -3.93402e-06 750C-4.28809e-06 741.9 2.52 736.8 4.8 732.3C6.9 728.4 8.39999 725.4 8.39999 720L20.1 720C20.1 728.22 17.58 733.2 15.3 737.7C13.2 741.6 11.7 744.6 11.7 750C11.7 755.209 13.3133 758.387 15.2876 762.276L15.3 762.3L15.3438 762.386C17.6121 766.863 20.1 771.773 20.1 780C20.1 788.227 17.6121 793.137 15.3438 797.614L15.3 797.7C13.2 801.6 11.7 804.72 11.7 810C11.7 815.28 13.32 818.4 15.3 822.3C17.58 826.8 20.1 831.9 20.1 840L8.4 840C8.4 834.72 6.78001 831.6 4.80001 827.7L4.75621 827.614C2.48786 823.137 -9.51727e-07 818.227 -1.31134e-06 810C-1.67096e-06 801.773 2.48786 796.863 4.75621 792.386L4.8 792.3C6.9 788.4 8.4 785.4 8.4 780C8.39999 774.791 6.78673 771.613 4.81235 767.724L4.8 767.7Z" fill="#FFFCEE"/>
<path d="M4.8 287.7C2.52 283.2 -3.57996e-06 278.1 -3.93402e-06 270C-4.28809e-06 261.9 2.52 256.8 4.8 252.3C6.9 248.4 8.39999 245.4 8.39999 240L20.1 240C20.1 248.22 17.58 253.2 15.3 257.7C13.2 261.6 11.7 264.6 11.7 270C11.7 275.209 13.3133 278.387 15.2876 282.276L15.3 282.3L15.3438 282.386C17.6121 286.863 20.1 291.773 20.1 300C20.1 308.227 17.6121 313.137 15.3438 317.614L15.3 317.7C13.2 321.6 11.7 324.72 11.7 330C11.7 335.28 13.32 338.4 15.3 342.3C17.58 346.8 20.1 351.9 20.1 360L8.4 360C8.4 354.72 6.78001 351.6 4.80001 347.7L4.75621 347.614C2.48786 343.137 -9.51727e-07 338.227 -1.31134e-06 330C-1.67096e-06 321.773 2.48786 316.863 4.75621 312.386L4.8 312.3C6.9 308.4 8.4 305.4 8.4 300C8.39999 294.791 6.78673 291.613 4.81235 287.724L4.8 287.7Z" fill="#FFFCEE"/>
<path d="M4.8 527.7C2.52 523.2 -3.57996e-06 518.1 -3.93402e-06 510C-4.28809e-06 501.9 2.52 496.8 4.8 492.3C6.9 488.4 8.39999 485.4 8.39999 480L20.1 480C20.1 488.22 17.58 493.2 15.3 497.7C13.2 501.6 11.7 504.6 11.7 510C11.7 515.209 13.3133 518.387 15.2876 522.276L15.3 522.3L15.3438 522.386C17.6121 526.863 20.1 531.773 20.1 540C20.1 548.227 17.6121 553.137 15.3438 557.614L15.3 557.7C13.2 561.6 11.7 564.72 11.7 570C11.7 575.28 13.32 578.4 15.3 582.3C17.58 586.8 20.1 591.9 20.1 600L8.4 600C8.4 594.72 6.78001 591.6 4.80001 587.7L4.75621 587.614C2.48786 583.137 -9.51727e-07 578.227 -1.31134e-06 570C-1.67096e-06 561.773 2.48786 556.863 4.75621 552.386L4.8 552.3C6.9 548.4 8.4 545.4 8.4 540C8.39999 534.791 6.78673 531.613 4.81235 527.724L4.8 527.7Z" fill="#FFFCEE"/>
<path d="M4.8 47.7C2.52 43.2 -3.57996e-06 38.1 -3.93402e-06 30C-4.28809e-06 21.9 2.52 16.8 4.8 12.3C6.9 8.39999 8.39999 5.4 8.39999 -3.67176e-07L20.1 -8.78599e-07C20.1 8.22 17.58 13.2 15.3 17.7C13.2 21.6 11.7 24.6 11.7 30C11.7 35.2091 13.3133 38.3867 15.2876 42.2756L15.3 42.3L15.3438 42.3864C17.6121 46.8631 20.1 51.773 20.1 60C20.1 68.227 17.6121 73.1369 15.3438 77.6136L15.3 77.7C13.2 81.6 11.7 84.72 11.7 90C11.7 95.28 13.32 98.4 15.3 102.3C17.58 106.8 20.1 111.9 20.1 120L8.4 120C8.4 114.72 6.78001 111.6 4.80001 107.7L4.75621 107.614C2.48786 103.137 -9.51727e-07 98.227 -1.31134e-06 90C-1.67096e-06 81.773 2.48786 76.8631 4.75621 72.3864L4.8 72.3C6.9 68.4 8.4 65.4 8.4 60C8.39999 54.7908 6.78673 51.6132 4.81235 47.7243L4.8 47.7Z" fill="#FFFCEE"/>
</svg>
