<svg width="24" height="24" viewBox="0 0 24 24" fill="none" xmlns="http://www.w3.org/2000/svg">
<path d="M18.0887 7.25705C18.0887 7.25724 18.0902 7.25666 18.0931 7.25472C18.0901 7.25588 18.0886 7.25685 18.0887 7.25705ZM18.0993 7.25C18.1077 7.24301 18.1207 7.2299 18.1377 7.20664C18.1929 7.13096 18.25 6.98962 18.25 6.8L18.25 5.2C18.25 5.01038 18.1929 4.86904 18.1377 4.79336C18.1207 4.7701 18.1077 4.75699 18.0993 4.75L5.75 4.75L5.75 7.25L18.0993 7.25ZM18.0887 4.74295C18.0886 4.74315 18.0901 4.74412 18.0931 4.74528C18.0902 4.74334 18.0887 4.74276 18.0887 4.74295Z" stroke="#6A57C9" stroke-opacity="0.75" stroke-width="1.5"/>
<path d="M12.1027 13.2359C12.0024 13.2486 11.8577 13.25 11.5714 13.25L5.75 13.25L5.75 10.75L11.5714 10.75C11.8577 10.75 12.0024 10.7514 12.1027 10.7641C12.1105 10.7651 12.1171 10.7661 12.1227 10.767C12.142 10.7896 12.1677 10.8275 12.1918 10.8859L12.1027 13.2359ZM12.1027 13.2359C12.1105 13.2349 12.1171 13.2339 12.1227 13.233M12.1027 13.2359L12.1227 13.233M12.1227 13.233C12.142 13.2104 12.1677 13.1725 12.1918 13.1141L12.1227 13.233ZM12.2372 12.8275C12.225 13.0155 12.2039 13.0848 12.1918 13.114L12.2372 12.8275ZM12.2372 12.8275C12.2496 12.6357 12.25 12.3837 12.25 12M12.2372 12.8275L12.25 12M12.25 12C12.25 11.6163 12.2496 11.3643 12.2372 11.1725M12.25 12L12.2372 11.1725M12.2372 11.1725C12.225 10.9845 12.2039 10.9152 12.1918 10.886L12.2372 11.1725Z" stroke="#6A57C9" stroke-opacity="0.75" stroke-width="1.5"/>
<path d="M9.05782 19.2505C9.05784 19.2506 9.05884 19.2506 9.06075 19.25C9.05875 19.2501 9.05779 19.2504 9.05782 19.2505ZM9.0609 19.25C9.06959 19.2476 9.09618 19.2357 9.13439 19.1868C9.19307 19.1117 9.25 18.9774 9.25 18.8L9.25 17.2C9.25 17.0226 9.19307 16.8883 9.13439 16.8132C9.09618 16.7643 9.0696 16.7524 9.0609 16.75L5.75 16.75L5.75 19.25L9.0609 19.25ZM9.05782 16.7495C9.05779 16.7496 9.05875 16.7499 9.06075 16.75C9.05884 16.7494 9.05784 16.7494 9.05782 16.7495Z" stroke="#6A57C9" stroke-opacity="0.75" stroke-width="1.5"/>
</svg>
