<svg width="24" height="24" viewBox="0 0 24 24" fill="none" xmlns="http://www.w3.org/2000/svg">
<path d="M8.34375 13.125C7.87776 13.125 7.5 13.5028 7.5 13.9688C7.5 14.4347 7.87776 14.8125 8.34375 14.8125H15.6562C16.1222 14.8125 16.5 14.4347 16.5 13.9688C16.5 13.5028 16.1222 13.125 15.6562 13.125H8.34375Z" fill="#6A57C9" fill-opacity="0.75"/>
<path d="M7.5 10.0312C7.5 9.40993 8.00368 8.90625 8.625 8.90625C9.24632 8.90625 9.75 9.40993 9.75 10.0312C9.75 10.6526 9.24632 11.1562 8.625 11.1562C8.00368 11.1562 7.5 10.6526 7.5 10.0312Z" fill="#6A57C9" fill-opacity="0.75"/>
<path d="M11.7188 9.1875C11.2528 9.1875 10.875 9.56526 10.875 10.0312C10.875 10.4972 11.2528 10.875 11.7188 10.875H15.6562C16.1222 10.875 16.5 10.4972 16.5 10.0312C16.5 9.56526 16.1222 9.1875 15.6562 9.1875H11.7188Z" fill="#6A57C9" fill-opacity="0.75"/>
<path fill-rule="evenodd" clip-rule="evenodd" d="M4.40625 6.375C4.40625 5.28769 5.28769 4.40625 6.375 4.40625H17.625C18.7123 4.40625 19.5938 5.28769 19.5938 6.375V17.625C19.5938 18.7123 18.7123 19.5938 17.625 19.5938H6.375C5.28769 19.5938 4.40625 18.7123 4.40625 17.625V6.375ZM6.09375 17.625V6.9375H17.9062V17.625C17.9062 17.7804 17.7804 17.9062 17.625 17.9062H6.375C6.21967 17.9062 6.09375 17.7804 6.09375 17.625Z" fill="#6A57C9" fill-opacity="0.75"/>
</svg>
