<svg width="40" height="40" viewBox="0 0 40 40" fill="none" xmlns="http://www.w3.org/2000/svg">
<path d="M4.28516 9.64425C4.28516 8.22345 4.84957 6.86084 5.85423 5.85618C6.85889 4.85152 8.2215 4.28711 9.6423 4.28711H30.3566C31.7774 4.28711 33.14 4.85152 34.1447 5.85618C35.1493 6.86084 35.7137 8.22345 35.7137 9.64425V30.3585C35.7137 31.7793 35.1493 33.142 34.1447 34.1466C33.14 35.1513 31.7774 35.7157 30.3566 35.7157H9.6423C8.2215 35.7157 6.85889 35.1513 5.85423 34.1466C4.84957 33.142 4.28516 31.7793 4.28516 30.3585V9.64425Z" fill="url(#paint0_linear_2652_7050)"/>
<path d="M17.1842 13.1711C16.9833 12.9704 16.711 12.8577 16.4271 12.8577C16.1431 12.8577 15.8708 12.9704 15.6699 13.1711L9.5985 19.2425C9.39786 19.4434 9.28516 19.7157 9.28516 19.9997C9.28516 20.2836 9.39786 20.5559 9.5985 20.7568L15.6699 26.8282C15.768 26.9335 15.8863 27.0179 16.0177 27.0765C16.1492 27.1351 16.291 27.1665 16.4349 27.1691C16.5788 27.1716 16.7217 27.1452 16.8551 27.0913C16.9885 27.0374 17.1097 26.9572 17.2114 26.8554C17.3132 26.7537 17.3934 26.6325 17.4472 26.4991C17.5011 26.3657 17.5276 26.2228 17.5251 26.0789C17.5225 25.9351 17.491 25.7932 17.4325 25.6617C17.3739 25.5303 17.2895 25.412 17.1842 25.3139L11.8699 19.9997L17.1842 14.6854C17.3849 14.4845 17.4976 14.2122 17.4976 13.9282C17.4976 13.6443 17.3849 13.372 17.1842 13.1711ZM24.3271 13.1711C24.229 13.0658 24.1107 12.9814 23.9793 12.9228C23.8478 12.8643 23.706 12.8328 23.5621 12.8302C23.4182 12.8277 23.2753 12.8542 23.1419 12.9081C23.0085 12.9619 22.8873 13.0422 22.7856 13.1439C22.6838 13.2456 22.6036 13.3668 22.5498 13.5002C22.4959 13.6336 22.4694 13.7765 22.4719 13.9204C22.4745 14.0643 22.506 14.2061 22.5645 14.3376C22.6231 14.469 22.7075 14.5873 22.8128 14.6854L28.1271 19.9997L22.8128 25.3139C22.7075 25.412 22.6231 25.5303 22.5645 25.6617C22.506 25.7932 22.4745 25.9351 22.4719 26.0789C22.4694 26.2228 22.4959 26.3657 22.5498 26.4991C22.6036 26.6325 22.6838 26.7537 22.7856 26.8554C22.8873 26.9572 23.0085 27.0374 23.1419 27.0913C23.2753 27.1452 23.4182 27.1716 23.5621 27.1691C23.706 27.1665 23.8478 27.1351 23.9793 27.0765C24.1107 27.0179 24.229 26.9335 24.3271 26.8282L30.3985 20.7568C30.5991 20.5559 30.7118 20.2836 30.7118 19.9997C30.7118 19.7157 30.5991 19.4434 30.3985 19.2425L24.3271 13.1711Z" fill="url(#paint1_linear_2652_7050)"/>
<defs>
<linearGradient id="paint0_linear_2652_7050" x1="11.948" y1="4.28711" x2="29.1837" y2="35.7157" gradientUnits="userSpaceOnUse">
<stop offset="0.028" stop-color="#B659A6"/>
<stop offset="0.438" stop-color="#6A57C9"/>
<stop offset="1" stop-color="#255A9D"/>
</linearGradient>
<linearGradient id="paint1_linear_2652_7050" x1="14.3642" y1="13.4068" x2="22.7571" y2="35.1282" gradientUnits="userSpaceOnUse">
<stop stop-color="#FDFDFD"/>
<stop offset="1" stop-color="#F9DCFA"/>
</linearGradient>
</defs>
</svg>
