<svg width="32" height="37" viewBox="0 0 32 37" fill="none" xmlns="http://www.w3.org/2000/svg">
<path d="M4.625 3C3.46468 3 2.35188 3.46094 1.53141 4.28141C0.710936 5.10188 0.25 6.21468 0.25 7.375V31.125C0.25 32.2853 0.710936 33.3981 1.53141 34.2186C2.35188 35.0391 3.46468 35.5 4.625 35.5H15.8425C16.025 35.09 16.2837 34.7075 16.6187 34.3713L27.25 23.74C27.4041 23.5857 27.5714 23.4452 27.75 23.32V7.375C27.75 6.21468 27.2891 5.10188 26.4686 4.28141C25.6481 3.46094 24.5353 3 23.375 3H4.625Z" fill="url(#paint0_linear_2656_4783)"/>
<path d="M6.5 14.25C6.5 13.9185 6.6317 13.6005 6.86612 13.3661C7.10054 13.1317 7.41848 13 7.75 13H20.25C20.5815 13 20.8995 13.1317 21.1339 13.3661C21.3683 13.6005 21.5 13.9185 21.5 14.25C21.5 14.5815 21.3683 14.8995 21.1339 15.1339C20.8995 15.3683 20.5815 15.5 20.25 15.5H7.75C7.41848 15.5 7.10054 15.3683 6.86612 15.1339C6.6317 14.8995 6.5 14.5815 6.5 14.25Z" fill="url(#paint1_linear_2656_4783)" fill-opacity="0.9"/>
<path d="M6.5 20.5C6.5 20.1685 6.6317 19.8505 6.86612 19.6161C7.10054 19.3817 7.41848 19.25 7.75 19.25H14C14.3315 19.25 14.6495 19.3817 14.8839 19.6161C15.1183 19.8505 15.25 20.1685 15.25 20.5C15.25 20.8315 15.1183 21.1495 14.8839 21.3839C14.6495 21.6183 14.3315 21.75 14 21.75H7.75C7.41848 21.75 7.10054 21.6183 6.86612 21.3839C6.6317 21.1495 6.5 20.8315 6.5 20.5Z" fill="url(#paint2_linear_2656_4783)" fill-opacity="0.9"/>
<path d="M7.75 25.5C7.41848 25.5 7.10054 25.6317 6.86612 25.8661C6.6317 26.1005 6.5 26.4185 6.5 26.75C6.5 27.0815 6.6317 27.3995 6.86612 27.6339C7.10054 27.8683 7.41848 28 7.75 28H20.25C20.5815 28 20.8995 27.8683 21.1339 27.6339C21.3683 27.3995 21.5 27.0815 21.5 26.75C21.5 26.4185 21.3683 26.1005 21.1339 25.8661C20.8995 25.6317 20.5815 25.5 20.25 25.5H7.75Z" fill="url(#paint3_linear_2656_4783)" fill-opacity="0.9"/>
<path d="M4.625 3C3.46468 3 2.35188 3.46094 1.53141 4.28141C0.710936 5.10188 0.25 6.21468 0.25 7.375V31.125C0.25 32.2853 0.710936 33.3981 1.53141 34.2186C2.35188 35.0391 3.46468 35.5 4.625 35.5H15.8425C16.025 35.09 16.2837 34.7075 16.6187 34.3713L27.25 23.74C27.4041 23.5857 27.5714 23.4452 27.75 23.32V7.375C27.75 6.21468 27.2891 5.10188 26.4686 4.28141C25.6481 3.46094 24.5353 3 23.375 3H4.625Z" fill="url(#paint4_radial_2656_4783)" fill-opacity="0.4"/>
<path d="M4.625 3C3.46468 3 2.35188 3.46094 1.53141 4.28141C0.710936 5.10188 0.25 6.21468 0.25 7.375V31.125C0.25 32.2853 0.710936 33.3981 1.53141 34.2186C2.35188 35.0391 3.46468 35.5 4.625 35.5H15.8425C16.025 35.09 16.2837 34.7075 16.6187 34.3713L27.25 23.74C27.4041 23.5857 27.5714 23.4452 27.75 23.32V7.375C27.75 6.21468 27.2891 5.10188 26.4686 4.28141C25.6481 3.46094 24.5353 3 23.375 3H4.625Z" fill="url(#paint5_radial_2656_4783)" fill-opacity="0.4"/>
<path d="M4.625 3C3.46468 3 2.35188 3.46094 1.53141 4.28141C0.710936 5.10188 0.25 6.21468 0.25 7.375V31.125C0.25 32.2853 0.710936 33.3981 1.53141 34.2186C2.35188 35.0391 3.46468 35.5 4.625 35.5H15.8425C16.025 35.09 16.2837 34.7075 16.6187 34.3713L27.25 23.74C27.4041 23.5857 27.5714 23.4452 27.75 23.32V7.375C27.75 6.21468 27.2891 5.10188 26.4686 4.28141C25.6481 3.46094 24.5353 3 23.375 3H4.625Z" fill="url(#paint6_radial_2656_4783)" fill-opacity="0.4"/>
<path d="M6.5 4.25C6.5 3.25544 6.89509 2.30161 7.59835 1.59835C8.30161 0.895088 9.25544 0.5 10.25 0.5H17.75C18.7446 0.5 19.6984 0.895088 20.4017 1.59835C21.1049 2.30161 21.5 3.25544 21.5 4.25C21.5 5.24456 21.1049 6.19839 20.4017 6.90165C19.6984 7.60491 18.7446 8 17.75 8H10.25C9.25544 8 8.30161 7.60491 7.59835 6.90165C6.89509 6.19839 6.5 5.24456 6.5 4.25Z" fill="url(#paint7_linear_2656_4783)"/>
<path d="M19.6742 34.8357L29.1867 25.407L24.0955 20.3145L14.6367 29.8645L15.0217 34.4832L19.6742 34.8357Z" fill="url(#paint8_linear_2656_4783)"/>
<path d="M27.6706 26.9245L30.4344 24.157C31.1006 23.4967 31.4827 22.6025 31.4995 21.6646C31.5163 20.7268 31.1665 19.8195 30.5244 19.1357C30.1934 18.7833 29.7949 18.5011 29.3525 18.306C28.9101 18.111 28.4329 18.007 27.9495 18.0003C27.4661 17.9937 26.9862 18.0845 26.5387 18.2673C26.0911 18.4501 25.6849 18.7213 25.3444 19.0645L22.5469 21.8657L27.6706 26.9245Z" fill="url(#paint9_linear_2656_4783)"/>
<path d="M24.1172 20.2969C24.4133 21.5348 25.0516 22.6646 25.9592 23.5571C26.8667 24.4496 28.007 25.0689 29.2497 25.3444L27.3122 27.2831C26.0691 27.0075 24.9287 26.3878 24.0211 25.4948C23.1135 24.6018 22.4754 23.4715 22.1797 22.2331L24.1172 20.2969Z" fill="url(#paint10_linear_2656_4783)"/>
<path d="M19.6727 34.8384L19.9514 34.5597C19.9514 34.5597 17.7939 33.7334 16.7827 32.7222C15.7714 31.7097 14.9452 29.5547 14.9452 29.5547L14.6352 29.8659C14.221 30.2837 13.9251 30.8039 13.7777 31.3734L12.7902 35.1872C12.7355 35.3978 12.7366 35.619 12.7936 35.8289C12.8506 36.0389 12.9614 36.2304 13.115 36.3844C13.2687 36.5384 13.4599 36.6497 13.6697 36.7072C13.8795 36.7647 14.1007 36.7664 14.3114 36.7122L18.0864 35.7397C18.6857 35.5844 19.2331 35.2743 19.6727 34.8384Z" fill="url(#paint11_linear_2656_4783)"/>
<defs>
<linearGradient id="paint0_linear_2656_4783" x1="0.25" y1="6.25" x2="26.04" y2="36.9375" gradientUnits="userSpaceOnUse">
<stop stop-color="#B659A6"/>
<stop offset="1" stop-color="#6A57C9"/>
</linearGradient>
<linearGradient id="paint1_linear_2656_4783" x1="15.875" y1="28" x2="4.7775" y2="14.4063" gradientUnits="userSpaceOnUse">
<stop stop-color="#F3A11A"/>
<stop offset="1" stop-color="white"/>
</linearGradient>
<linearGradient id="paint2_linear_2656_4783" x1="15.875" y1="28" x2="4.7775" y2="14.4062" gradientUnits="userSpaceOnUse">
<stop stop-color="#F3A11A"/>
<stop offset="1" stop-color="white"/>
</linearGradient>
<linearGradient id="paint3_linear_2656_4783" x1="15.875" y1="28" x2="4.7775" y2="14.4063" gradientUnits="userSpaceOnUse">
<stop stop-color="#F3A11A"/>
<stop offset="1" stop-color="white"/>
</linearGradient>
<radialGradient id="paint4_radial_2656_4783" cx="0" cy="0" r="1" gradientUnits="userSpaceOnUse" gradientTransform="translate(14 1.195) scale(11.1719 9.83704)">
<stop stop-color="#0A1852"/>
<stop offset="1" stop-color="#0A1852" stop-opacity="0"/>
</radialGradient>
<radialGradient id="paint5_radial_2656_4783" cx="0" cy="0" r="1" gradientUnits="userSpaceOnUse" gradientTransform="translate(14 1.195) scale(11.1719 11.0968)">
<stop stop-color="#0A1852"/>
<stop offset="1" stop-color="#0A1852" stop-opacity="0"/>
</radialGradient>
<radialGradient id="paint6_radial_2656_4783" cx="0" cy="0" r="1" gradientUnits="userSpaceOnUse" gradientTransform="translate(23.4537 26.4725) rotate(135.565) scale(18.053 8.10909)">
<stop stop-color="#0A1852"/>
<stop offset="1" stop-color="#0A1852" stop-opacity="0"/>
</radialGradient>
<linearGradient id="paint7_linear_2656_4783" x1="14" y1="0.5" x2="14" y2="8" gradientUnits="userSpaceOnUse">
<stop stop-color="#FFE06B"/>
<stop offset="1" stop-color="#FAB500"/>
</linearGradient>
<linearGradient id="paint8_linear_2656_4783" x1="18.8267" y1="22.9345" x2="26.5555" y2="30.6857" gradientUnits="userSpaceOnUse">
<stop stop-color="#FFA43D"/>
<stop offset="1" stop-color="#FB5937"/>
</linearGradient>
<linearGradient id="paint9_linear_2656_4783" x1="29.6269" y1="19.8557" x2="26.3356" y2="22.9607" gradientUnits="userSpaceOnUse">
<stop stop-color="#F97DBD"/>
<stop offset="1" stop-color="#DD3CE2"/>
</linearGradient>
<linearGradient id="paint10_linear_2656_4783" x1="25.8359" y1="25.0794" x2="20.8609" y2="22.8769" gradientUnits="userSpaceOnUse">
<stop stop-color="#FF921F"/>
<stop offset="1" stop-color="#FFE994"/>
</linearGradient>
<linearGradient id="paint11_linear_2656_4783" x1="11.7164" y1="31.5597" x2="16.9052" y2="36.7197" gradientUnits="userSpaceOnUse">
<stop offset="0.255" stop-color="#FFD394"/>
<stop offset="1" stop-color="#FF921F"/>
</linearGradient>
</defs>
</svg>
