<svg width="191" height="37" viewBox="0 0 191 37" fill="none" xmlns="http://www.w3.org/2000/svg">
<path d="M27.4473 10.494C27.1953 11.85 26.7093 13.056 25.9893 14.112C25.2693 15.156 24.3693 16.044 23.2893 16.776C22.2213 17.508 21.0153 18.06 19.6713 18.432C18.3273 18.804 16.8993 18.99 15.3873 18.99C14.1993 18.99 13.2213 18.906 12.4533 18.738C11.6853 18.558 10.8933 18.288 10.0773 17.928L10.8513 15.912C11.3793 16.248 11.9013 16.494 12.4173 16.65C12.9333 16.794 13.4793 16.866 14.0553 16.866C14.9913 16.866 15.8433 16.614 16.6113 16.11C17.3913 15.606 18.0573 14.844 18.6093 13.824C19.1733 12.804 19.5933 11.538 19.8693 10.026C20.1453 8.562 20.1993 7.398 20.0313 6.534C19.8633 5.67 19.5633 5.046 19.1313 4.662C18.7113 4.266 18.2253 4.068 17.6733 4.068C17.0733 4.068 16.5873 4.248 16.2153 4.608C15.8553 4.968 15.5613 5.538 15.3333 6.318C15.2973 6.45 15.2073 6.81 15.0633 7.398C14.9193 7.986 14.7333 8.73 14.5053 9.63C14.2773 10.518 14.0253 11.496 13.7493 12.564C13.4733 13.62 13.1973 14.7 12.9213 15.804C12.6453 16.896 12.3753 17.946 12.1113 18.954C11.8593 19.95 11.6313 20.832 11.4273 21.6C11.2353 22.368 11.0913 22.938 10.9953 23.31C10.8753 23.718 10.8453 24.012 10.9053 24.192C10.9773 24.372 11.1153 24.492 11.3193 24.552L13.0113 24.822C13.2753 24.882 13.4673 24.996 13.5873 25.164C13.7073 25.332 13.7673 25.542 13.7673 25.794C13.7673 26.142 13.6353 26.43 13.3713 26.658C13.1193 26.886 12.7593 27 12.2913 27H1.59927C1.08327 27 0.741266 26.904 0.573266 26.712C0.417266 26.508 0.339266 26.256 0.339266 25.956C0.339266 25.668 0.429266 25.422 0.609266 25.218C0.801266 25.014 1.01727 24.87 1.25727 24.786L2.15727 24.534C2.39727 24.45 2.57727 24.324 2.69727 24.156C2.81727 23.976 2.92527 23.73 3.02127 23.418C3.12927 23.058 3.29127 22.488 3.50727 21.708C3.72327 20.916 3.97527 19.992 4.26327 18.936C4.55127 17.88 4.85127 16.764 5.16327 15.588C5.47527 14.412 5.78127 13.248 6.08127 12.096C6.38127 10.944 6.65727 9.882 6.90927 8.91C7.16127 7.938 7.37127 7.122 7.53927 6.462C7.70727 5.79 7.80327 5.364 7.82727 5.184C7.88727 4.884 7.86927 4.668 7.77327 4.536C7.68927 4.392 7.54527 4.284 7.34127 4.212L6.49527 3.96C6.25527 3.852 6.07527 3.726 5.95527 3.582C5.83527 3.438 5.77527 3.246 5.77527 3.006C5.77527 2.646 5.90127 2.358 6.15327 2.142C6.40527 1.914 6.76527 1.8 7.23327 1.8H18.9873C20.4513 1.8 21.7593 2.004 22.9113 2.412C24.0753 2.808 25.0353 3.384 25.7913 4.14C26.5593 4.896 27.0873 5.814 27.3753 6.894C27.6753 7.962 27.6993 9.162 27.4473 10.494ZM48.5824 22.032C48.7864 22.14 48.8944 22.338 48.9064 22.626C48.9304 22.902 48.8224 23.262 48.5824 23.706C47.9824 24.846 47.0704 25.77 45.8464 26.478C44.6344 27.174 43.2304 27.522 41.6344 27.522C40.6504 27.522 39.9004 27.33 39.3844 26.946C38.8684 26.55 38.6104 25.986 38.6104 25.254C38.6104 24.822 38.7064 24.342 38.8984 23.814C39.1024 23.274 39.3304 22.722 39.5824 22.158C39.8464 21.582 40.0864 21.018 40.3024 20.466C40.5304 19.902 40.6624 19.374 40.6984 18.882L41.2384 19.026C40.6144 20.646 39.8944 22.002 39.0784 23.094C38.2744 24.174 37.4284 25.044 36.5404 25.704C35.6644 26.352 34.7824 26.814 33.8944 27.09C33.0064 27.378 32.1604 27.522 31.3564 27.522C30.2644 27.522 29.4364 27.282 28.8724 26.802C28.3084 26.31 27.9904 25.638 27.9184 24.786C27.8584 23.922 28.0264 22.932 28.4224 21.816L30.2584 16.38C30.5464 15.54 30.6484 14.964 30.5644 14.652C30.4804 14.328 30.3184 14.166 30.0784 14.166C29.9344 14.166 29.7844 14.208 29.6284 14.292C29.4844 14.376 29.2984 14.526 29.0704 14.742C28.8064 14.958 28.5904 15.084 28.4224 15.12C28.2664 15.156 28.1104 15.138 27.9544 15.066C27.7504 14.97 27.6364 14.778 27.6124 14.49C27.6004 14.19 27.7144 13.812 27.9544 13.356C28.5064 12.264 29.3704 11.382 30.5464 10.71C31.7224 10.026 33.1264 9.684 34.7584 9.684C35.9344 9.684 36.7924 9.906 37.3324 10.35C37.8844 10.782 38.1784 11.394 38.2144 12.186C38.2504 12.978 38.0764 13.914 37.6924 14.994L35.8924 20.286C35.5924 21.102 35.4724 21.708 35.5324 22.104C35.6044 22.5 35.8744 22.698 36.3424 22.698C36.6424 22.698 36.9604 22.596 37.2964 22.392C37.6444 22.176 37.9924 21.87 38.3404 21.474C38.6884 21.078 39.0244 20.598 39.3484 20.034C39.6724 19.458 39.9664 18.816 40.2304 18.108C40.4584 17.532 40.6444 17.01 40.7884 16.542C40.9444 16.074 41.0644 15.66 41.1484 15.3C41.2324 14.928 41.2744 14.616 41.2744 14.364C41.2744 13.98 41.2024 13.632 41.0584 13.32C40.9264 13.008 40.8604 12.648 40.8604 12.24C40.8604 11.472 41.3704 10.854 42.3904 10.386C43.4104 9.918 44.8384 9.684 46.6744 9.684C47.9584 9.684 48.7324 10.068 48.9964 10.836C49.2724 11.592 49.1644 12.636 48.6724 13.968L46.2244 20.79C45.9364 21.582 45.8344 22.14 45.9184 22.464C46.0024 22.776 46.1644 22.932 46.4044 22.932C46.5484 22.932 46.6984 22.89 46.8544 22.806C47.0104 22.722 47.2144 22.572 47.4664 22.356C47.7184 22.14 47.9284 22.014 48.0964 21.978C48.2644 21.93 48.4264 21.948 48.5824 22.032ZM67.7948 26.316C67.3388 28.356 66.5648 30.108 65.4728 31.572C64.3808 33.036 62.9528 34.158 61.1888 34.938C59.4368 35.73 57.3248 36.126 54.8528 36.126C52.7648 36.126 51.1688 35.754 50.0648 35.01C48.9608 34.266 48.4088 33.3 48.4088 32.112C48.4088 31.32 48.6788 30.636 49.2188 30.06C49.7468 29.484 50.4728 29.196 51.3968 29.196C52.1168 29.196 52.7588 29.412 53.3228 29.844C53.8988 30.288 54.4268 30.798 54.9068 31.374C55.3868 31.962 55.8548 32.478 56.3108 32.922C56.7668 33.366 57.2348 33.588 57.7148 33.588C58.0028 33.588 58.2608 33.504 58.4888 33.336C58.7288 33.168 58.9448 32.886 59.1368 32.49C59.3288 32.106 59.5028 31.596 59.6588 30.96L62.1248 21.528L62.9708 22.014C62.6468 23.142 62.1248 24.12 61.4048 24.948C60.6848 25.776 59.8268 26.412 58.8308 26.856C57.8348 27.3 56.7548 27.522 55.5908 27.522C54.5108 27.522 53.5868 27.294 52.8188 26.838C52.0628 26.382 51.5108 25.704 51.1628 24.804C50.8148 23.892 50.7128 22.764 50.8568 21.42C50.9768 20.268 51.2648 19.128 51.7208 18C52.1888 16.86 52.8128 15.792 53.5928 14.796C54.3848 13.788 55.3328 12.906 56.4368 12.15C57.5408 11.382 58.7948 10.782 60.1988 10.35C61.6028 9.906 63.1508 9.684 64.8428 9.684C66.4868 9.684 67.8608 9.792 68.9648 10.008C70.0688 10.224 70.8848 10.518 71.4128 10.89C71.9528 11.25 72.1868 11.646 72.1148 12.078C72.0668 12.474 71.9228 12.75 71.6828 12.906C71.4548 13.062 71.2148 13.218 70.9628 13.374C70.7228 13.53 70.5608 13.812 70.4768 14.22L67.7948 26.316ZM58.2728 21.42C58.2128 22.008 58.2128 22.476 58.2728 22.824C58.3328 23.172 58.4348 23.424 58.5788 23.58C58.7228 23.724 58.8848 23.796 59.0648 23.796C59.3888 23.796 59.7188 23.658 60.0548 23.382C60.4028 23.094 60.7508 22.686 61.0988 22.158C61.4588 21.618 61.8008 20.982 62.1248 20.25C62.4608 19.518 62.7668 18.69 63.0428 17.766C63.3308 16.83 63.5708 15.834 63.7628 14.778C63.9428 13.842 63.9728 13.152 63.8528 12.708C63.7448 12.252 63.4868 12.024 63.0788 12.024C62.6468 12.024 62.2208 12.216 61.8008 12.6C61.3808 12.984 60.9728 13.506 60.5768 14.166C60.1928 14.826 59.8388 15.564 59.5148 16.38C59.2028 17.196 58.9388 18.042 58.7228 18.918C58.5068 19.782 58.3568 20.616 58.2728 21.42ZM95.8169 23.868V23.832C96.9689 24.948 98.2289 25.668 99.5249 25.668L99.3089 27.36C97.4369 27.36 95.8529 26.496 94.4849 25.092C92.6489 26.496 90.3809 27.36 88.0409 27.36C82.9649 27.36 79.4009 23.292 80.1209 18.216C80.5529 15.264 82.3529 12.6 84.9449 10.908C84.2609 9.576 83.7569 8.172 83.9729 6.588C84.4049 3.492 87.3929 0.971998 90.5609 0.971998C93.0809 0.971998 95.0969 2.592 95.4929 4.968L93.6209 5.472C93.3689 3.78 92.0369 2.664 90.3089 2.664C88.1489 2.664 86.1329 4.428 85.8449 6.588C85.6289 8.064 86.2409 9.468 87.6089 11.592L93.2969 20.52C93.7289 21.276 94.2329 21.996 94.7369 22.644C95.8169 21.384 96.5369 19.872 96.7889 18.18C97.0769 16.128 96.5369 14.22 95.3489 12.924L96.7889 11.7C98.3369 13.392 98.9849 15.696 98.6249 18.144C98.3369 20.268 97.3289 22.248 95.8169 23.868ZM88.2929 25.668C90.1649 25.668 91.9649 25.02 93.4049 23.868C92.9009 23.256 92.4329 22.536 91.9649 21.78L85.9889 12.636C85.9169 12.528 85.8449 12.42 85.7729 12.312C83.7569 13.68 82.3169 15.84 81.9929 18.18C81.3809 22.356 84.1889 25.668 88.2929 25.668ZM134.92 10.494C134.668 11.85 134.182 13.056 133.462 14.112C132.742 15.156 131.842 16.044 130.762 16.776C129.694 17.508 128.488 18.06 127.144 18.432C125.8 18.804 124.372 18.99 122.86 18.99C121.672 18.99 120.694 18.906 119.926 18.738C119.158 18.558 118.366 18.288 117.55 17.928L118.324 15.912C118.852 16.248 119.374 16.494 119.89 16.65C120.406 16.794 120.952 16.866 121.528 16.866C122.464 16.866 123.316 16.614 124.084 16.11C124.864 15.606 125.53 14.844 126.082 13.824C126.646 12.804 127.066 11.538 127.342 10.026C127.618 8.562 127.672 7.398 127.504 6.534C127.336 5.67 127.036 5.046 126.604 4.662C126.184 4.266 125.698 4.068 125.146 4.068C124.546 4.068 124.06 4.248 123.688 4.608C123.328 4.968 123.034 5.538 122.806 6.318C122.77 6.45 122.68 6.81 122.536 7.398C122.392 7.986 122.206 8.73 121.978 9.63C121.75 10.518 121.498 11.496 121.222 12.564C120.946 13.62 120.67 14.7 120.394 15.804C120.118 16.896 119.848 17.946 119.584 18.954C119.332 19.95 119.104 20.832 118.9 21.6C118.708 22.368 118.564 22.938 118.468 23.31C118.348 23.718 118.318 24.012 118.378 24.192C118.45 24.372 118.588 24.492 118.792 24.552L120.484 24.822C120.748 24.882 120.94 24.996 121.06 25.164C121.18 25.332 121.24 25.542 121.24 25.794C121.24 26.142 121.108 26.43 120.844 26.658C120.592 26.886 120.232 27 119.764 27H109.072C108.556 27 108.214 26.904 108.046 26.712C107.89 26.508 107.812 26.256 107.812 25.956C107.812 25.668 107.902 25.422 108.082 25.218C108.274 25.014 108.49 24.87 108.73 24.786L109.63 24.534C109.87 24.45 110.05 24.324 110.17 24.156C110.29 23.976 110.398 23.73 110.494 23.418C110.602 23.058 110.764 22.488 110.98 21.708C111.196 20.916 111.448 19.992 111.736 18.936C112.024 17.88 112.324 16.764 112.636 15.588C112.948 14.412 113.254 13.248 113.554 12.096C113.854 10.944 114.13 9.882 114.382 8.91C114.634 7.938 114.844 7.122 115.012 6.462C115.18 5.79 115.276 5.364 115.3 5.184C115.36 4.884 115.342 4.668 115.246 4.536C115.162 4.392 115.018 4.284 114.814 4.212L113.968 3.96C113.728 3.852 113.548 3.726 113.428 3.582C113.308 3.438 113.248 3.246 113.248 3.006C113.248 2.646 113.374 2.358 113.626 2.142C113.878 1.914 114.238 1.8 114.706 1.8H126.46C127.924 1.8 129.232 2.004 130.384 2.412C131.548 2.808 132.508 3.384 133.264 4.14C134.032 4.896 134.56 5.814 134.848 6.894C135.148 7.962 135.172 9.162 134.92 10.494ZM147.055 1.008C148.507 1.008 149.587 1.332 150.295 1.98C151.003 2.628 151.357 3.396 151.357 4.284C151.357 5.136 151.105 5.826 150.601 6.354C150.109 6.882 149.407 7.146 148.495 7.146C147.931 7.146 147.445 7.044 147.037 6.84C146.641 6.636 146.281 6.402 145.957 6.138C145.633 5.862 145.309 5.622 144.985 5.418C144.661 5.214 144.301 5.112 143.905 5.112C143.641 5.112 143.419 5.16 143.239 5.256C143.059 5.352 142.921 5.49 142.825 5.67C142.729 5.838 142.681 6.042 142.681 6.282C142.681 6.642 142.783 7.008 142.987 7.38C143.203 7.752 143.449 8.154 143.725 8.586C144.013 9.006 144.271 9.48 144.499 10.008C144.739 10.524 144.889 11.112 144.949 11.772C145.009 12.432 144.913 13.182 144.661 14.022L142.627 20.808C142.375 21.66 142.279 22.242 142.339 22.554C142.411 22.866 142.567 23.022 142.807 23.022C142.951 23.022 143.095 22.98 143.239 22.896C143.395 22.812 143.587 22.668 143.815 22.464C144.079 22.236 144.289 22.104 144.445 22.068C144.613 22.02 144.781 22.038 144.949 22.122C145.153 22.218 145.261 22.416 145.273 22.716C145.285 23.004 145.171 23.376 144.931 23.832C144.571 24.564 144.061 25.206 143.401 25.758C142.753 26.31 141.985 26.742 141.097 27.054C140.209 27.366 139.225 27.522 138.145 27.522C136.981 27.522 136.129 27.306 135.589 26.874C135.061 26.43 134.779 25.812 134.743 25.02C134.719 24.216 134.869 23.274 135.193 22.194L139.747 7.092C140.395 4.956 141.349 3.408 142.609 2.448C143.881 1.488 145.363 1.008 147.055 1.008ZM165.06 20.826C164.844 21.678 164.772 22.266 164.844 22.59C164.928 22.914 165.09 23.076 165.33 23.076C165.486 23.076 165.636 23.034 165.78 22.95C165.924 22.866 166.11 22.722 166.338 22.518C166.602 22.29 166.818 22.158 166.986 22.122C167.154 22.074 167.316 22.092 167.472 22.176C167.676 22.284 167.784 22.482 167.796 22.77C167.82 23.058 167.712 23.43 167.472 23.886C166.92 24.966 166.08 25.842 164.952 26.514C163.824 27.186 162.6 27.522 161.28 27.522C160.2 27.522 159.432 27.258 158.976 26.73C158.52 26.202 158.292 25.488 158.292 24.588C158.292 24.312 158.304 24.018 158.328 23.706C158.364 23.382 158.4 23.052 158.436 22.716C158.484 22.38 158.538 22.056 158.598 21.744C158.658 21.42 158.724 21.12 158.796 20.844L159.264 22.086C158.94 23.19 158.412 24.15 157.68 24.966C156.96 25.782 156.102 26.412 155.106 26.856C154.122 27.3 153.048 27.522 151.884 27.522C150.252 27.522 148.998 27.012 148.122 25.992C147.246 24.96 146.922 23.436 147.15 21.42C147.27 20.268 147.558 19.128 148.014 18C148.482 16.86 149.106 15.792 149.886 14.796C150.678 13.788 151.626 12.906 152.73 12.15C153.834 11.382 155.088 10.782 156.492 10.35C157.896 9.906 159.444 9.684 161.136 9.684C162.78 9.684 164.154 9.792 165.258 10.008C166.362 10.224 167.178 10.518 167.706 10.89C168.246 11.25 168.486 11.646 168.426 12.078C168.366 12.474 168.222 12.75 167.994 12.906C167.766 13.062 167.532 13.218 167.292 13.374C167.052 13.53 166.878 13.812 166.77 14.22L165.06 20.826ZM154.566 21.42C154.47 22.32 154.506 22.944 154.674 23.292C154.854 23.628 155.082 23.796 155.358 23.796C155.682 23.796 156.012 23.658 156.348 23.382C156.696 23.094 157.044 22.686 157.392 22.158C157.752 21.618 158.094 20.982 158.418 20.25C158.754 19.506 159.06 18.672 159.336 17.748C159.624 16.824 159.864 15.834 160.056 14.778C160.236 13.842 160.266 13.152 160.146 12.708C160.038 12.252 159.78 12.024 159.372 12.024C158.94 12.024 158.514 12.216 158.094 12.6C157.674 12.984 157.266 13.506 156.87 14.166C156.486 14.826 156.132 15.564 155.808 16.38C155.496 17.196 155.232 18.042 155.016 18.918C154.8 19.782 154.65 20.616 154.566 21.42ZM182.525 15.084C183.065 13.296 183.725 11.952 184.505 11.052C185.297 10.14 186.233 9.684 187.313 9.684C188.153 9.684 188.825 9.972 189.329 10.548C189.833 11.112 190.085 11.868 190.085 12.816C190.085 13.992 189.743 14.982 189.059 15.786C188.387 16.578 187.511 17.256 186.431 17.82C185.951 18.072 185.513 18.33 185.117 18.594C184.721 18.858 184.361 19.158 184.037 19.494C183.725 19.818 183.443 20.208 183.191 20.664C182.939 21.108 182.705 21.642 182.489 22.266L181.013 26.73C180.281 28.938 179.393 30.708 178.349 32.04C177.317 33.384 176.123 34.35 174.767 34.938C173.423 35.538 171.923 35.838 170.267 35.838C168.443 35.838 167.057 35.46 166.109 34.704C165.161 33.948 164.687 32.934 164.687 31.662C164.687 30.786 164.969 30.024 165.533 29.376C166.085 28.74 166.793 28.422 167.657 28.422C168.281 28.422 168.791 28.584 169.187 28.908C169.583 29.232 169.913 29.628 170.177 30.096C170.441 30.576 170.687 31.056 170.915 31.536C171.143 32.016 171.401 32.418 171.689 32.742C171.977 33.066 172.343 33.228 172.787 33.228C173.003 33.228 173.201 33.186 173.381 33.102C173.573 33.03 173.729 32.898 173.849 32.706C173.981 32.514 174.083 32.256 174.155 31.932C174.227 31.608 174.263 31.2 174.263 30.708C174.263 30.24 174.233 29.64 174.173 28.908C174.113 28.188 174.029 27.384 173.921 26.496C173.825 25.596 173.711 24.66 173.579 23.688C173.459 22.716 173.327 21.744 173.183 20.772C173.039 19.788 172.895 18.858 172.751 17.982C172.607 17.106 172.469 16.32 172.337 15.624C172.265 15.132 172.151 14.778 171.995 14.562C171.839 14.334 171.665 14.22 171.473 14.22C171.353 14.22 171.215 14.274 171.059 14.382C170.915 14.49 170.741 14.682 170.537 14.958C170.405 15.102 170.267 15.204 170.123 15.264C169.991 15.312 169.847 15.318 169.691 15.282C169.535 15.246 169.397 15.126 169.277 14.922C169.169 14.718 169.175 14.4 169.295 13.968C169.547 13.164 169.973 12.438 170.573 11.79C171.173 11.142 171.899 10.632 172.751 10.26C173.615 9.876 174.557 9.684 175.577 9.684C176.537 9.684 177.323 9.99 177.935 10.602C178.547 11.214 178.919 12.132 179.051 13.356C179.123 13.956 179.189 14.676 179.249 15.516C179.321 16.356 179.393 17.262 179.465 18.234C179.537 19.206 179.597 20.196 179.645 21.204C179.705 22.212 179.753 23.184 179.789 24.12C179.825 25.044 179.849 25.872 179.861 26.604L179.069 26.55L182.525 15.084Z" fill="#FFFCEE"/>
</svg>
