<svg width="24" height="28" viewBox="0 0 24 28" fill="none" xmlns="http://www.w3.org/2000/svg">
<path fill-rule="evenodd" clip-rule="evenodd" d="M1.70093 8.32179C2.64033 8.32179 3.40187 7.56026 3.40187 6.62086C3.40187 5.68146 2.64033 4.91992 1.70093 4.91992C0.761534 4.91992 0 5.68146 0 6.62086C0 7.56026 0.761534 8.32179 1.70093 8.32179Z" fill="#509EE3"/>
<path fill-rule="evenodd" clip-rule="evenodd" d="M1.70093 13.2417C2.64033 13.2417 3.40187 12.4802 3.40187 11.5408C3.40187 10.6014 2.64033 9.83984 1.70093 9.83984C0.761534 9.83984 0 10.6014 0 11.5408C0 12.4802 0.761534 13.2417 1.70093 13.2417Z" fill="#509EE3"/>
<path fill-rule="evenodd" clip-rule="evenodd" d="M6.62086 13.2417C7.56026 13.2417 8.32179 12.4802 8.32179 11.5408C8.32179 10.6014 7.56026 9.83984 6.62086 9.83984C5.68146 9.83984 4.91992 10.6014 4.91992 11.5408C4.91992 12.4802 5.68146 13.2417 6.62086 13.2417Z" fill="#509EE3"/>
<path fill-rule="evenodd" clip-rule="evenodd" d="M21.3787 8.32179C22.3181 8.32179 23.0796 7.56026 23.0796 6.62086C23.0796 5.68146 22.3181 4.91992 21.3787 4.91992C20.4393 4.91992 19.6777 5.68146 19.6777 6.62086C19.6777 7.56026 20.4393 8.32179 21.3787 8.32179Z" fill="#509EE3"/>
<path fill-rule="evenodd" clip-rule="evenodd" d="M16.4607 13.2417C17.4001 13.2417 18.1616 12.4802 18.1616 11.5408C18.1616 10.6014 17.4001 9.83984 16.4607 9.83984C15.5213 9.83984 14.7598 10.6014 14.7598 11.5408C14.7598 12.4802 15.5213 13.2417 16.4607 13.2417Z" fill="#509EE3"/>
<path fill-rule="evenodd" clip-rule="evenodd" d="M11.5408 18.1616C12.4802 18.1616 13.2417 17.4001 13.2417 16.4607C13.2417 15.5213 12.4802 14.7598 11.5408 14.7598C10.6014 14.7598 9.83984 15.5213 9.83984 16.4607C9.83984 17.4001 10.6014 18.1616 11.5408 18.1616Z" fill="#509EE3"/>
<path fill-rule="evenodd" clip-rule="evenodd" d="M21.3787 13.2417C22.3181 13.2417 23.0796 12.4802 23.0796 11.5408C23.0796 10.6014 22.3181 9.83984 21.3787 9.83984C20.4393 9.83984 19.6777 10.6014 19.6777 11.5408C19.6777 12.4802 20.4393 13.2417 21.3787 13.2417Z" fill="#509EE3"/>
<path fill-rule="evenodd" clip-rule="evenodd" d="M1.70093 18.1616C2.64033 18.1616 3.40187 17.4001 3.40187 16.4607C3.40187 15.5213 2.64033 14.7598 1.70093 14.7598C0.761534 14.7598 0 15.5213 0 16.4607C0 17.4001 0.761534 18.1616 1.70093 18.1616Z" fill="#509EE3"/>
<path fill-rule="evenodd" clip-rule="evenodd" d="M21.3787 18.1616C22.3181 18.1616 23.0796 17.4001 23.0796 16.4607C23.0796 15.5213 22.3181 14.7598 21.3787 14.7598C20.4393 14.7598 19.6777 15.5213 19.6777 16.4607C19.6777 17.4001 20.4393 18.1616 21.3787 18.1616Z" fill="#509EE3"/>
<path fill-rule="evenodd" clip-rule="evenodd" d="M1.70093 23.0796C2.64033 23.0796 3.40187 22.3181 3.40187 21.3787C3.40187 20.4393 2.64033 19.6777 1.70093 19.6777C0.761534 19.6777 0 20.4393 0 21.3787C0 22.3181 0.761534 23.0796 1.70093 23.0796Z" fill="#509EE3"/>
<path fill-rule="evenodd" clip-rule="evenodd" d="M21.3787 23.0796C22.3181 23.0796 23.0796 22.3181 23.0796 21.3787C23.0796 20.4393 22.3181 19.6777 21.3787 19.6777C20.4393 19.6777 19.6777 20.4393 19.6777 21.3787C19.6777 22.3181 20.4393 23.0796 21.3787 23.0796Z" fill="#509EE3"/>
<path fill-rule="evenodd" clip-rule="evenodd" d="M6.62086 8.32179C7.56026 8.32179 8.32179 7.56026 8.32179 6.62086C8.32179 5.68146 7.56026 4.91992 6.62086 4.91992C5.68146 4.91992 4.91992 5.68146 4.91992 6.62086C4.91992 7.56026 5.68146 8.32179 6.62086 8.32179Z" fill="#C2DAF0"/>
<path fill-rule="evenodd" clip-rule="evenodd" d="M11.5408 8.32179C12.4802 8.32179 13.2417 7.56026 13.2417 6.62086C13.2417 5.68146 12.4802 4.91992 11.5408 4.91992C10.6014 4.91992 9.83984 5.68146 9.83984 6.62086C9.83984 7.56026 10.6014 8.32179 11.5408 8.32179Z" fill="#C2DAF0"/>
<path fill-rule="evenodd" clip-rule="evenodd" d="M11.5408 3.40187C12.4802 3.40187 13.2417 2.64034 13.2417 1.70093C13.2417 0.761535 12.4802 0 11.5408 0C10.6014 0 9.83984 0.761535 9.83984 1.70093C9.83984 2.64034 10.6014 3.40187 11.5408 3.40187Z" fill="#C2DAF0"/>
<path fill-rule="evenodd" clip-rule="evenodd" d="M11.5408 13.2417C12.4802 13.2417 13.2417 12.4802 13.2417 11.5408C13.2417 10.6014 12.4802 9.83984 11.5408 9.83984C10.6014 9.83984 9.83984 10.6014 9.83984 11.5408C9.83984 12.4802 10.6014 13.2417 11.5408 13.2417Z" fill="#C2DAF0"/>
<path fill-rule="evenodd" clip-rule="evenodd" d="M16.4607 8.32179C17.4001 8.32179 18.1616 7.56026 18.1616 6.62086C18.1616 5.68146 17.4001 4.91992 16.4607 4.91992C15.5213 4.91992 14.7598 5.68146 14.7598 6.62086C14.7598 7.56026 15.5213 8.32179 16.4607 8.32179Z" fill="#C2DAF0"/>
<path fill-rule="evenodd" clip-rule="evenodd" d="M6.62086 18.1616C7.56026 18.1616 8.32179 17.4001 8.32179 16.4607C8.32179 15.5213 7.56026 14.7598 6.62086 14.7598C5.68146 14.7598 4.91992 15.5213 4.91992 16.4607C4.91992 17.4001 5.68146 18.1616 6.62086 18.1616Z" fill="#C2DAF0"/>
<path fill-rule="evenodd" clip-rule="evenodd" d="M16.4607 18.1616C17.4001 18.1616 18.1616 17.4001 18.1616 16.4607C18.1616 15.5213 17.4001 14.7598 16.4607 14.7598C15.5213 14.7598 14.7598 15.5213 14.7598 16.4607C14.7598 17.4001 15.5213 18.1616 16.4607 18.1616Z" fill="#C2DAF0"/>
<path fill-rule="evenodd" clip-rule="evenodd" d="M6.62086 23.0796C7.56026 23.0796 8.32179 22.3181 8.32179 21.3787C8.32179 20.4393 7.56026 19.6777 6.62086 19.6777C5.68146 19.6777 4.91992 20.4393 4.91992 21.3787C4.91992 22.3181 5.68146 23.0796 6.62086 23.0796Z" fill="#C2DAF0"/>
<path fill-rule="evenodd" clip-rule="evenodd" d="M11.5408 23.0796C12.4802 23.0796 13.2417 22.3181 13.2417 21.3787C13.2417 20.4393 12.4802 19.6777 11.5408 19.6777C10.6014 19.6777 9.83984 20.4393 9.83984 21.3787C9.83984 22.3181 10.6014 23.0796 11.5408 23.0796Z" fill="#C2DAF0"/>
<path fill-rule="evenodd" clip-rule="evenodd" d="M11.5408 27.9995C12.4802 27.9995 13.2417 27.238 13.2417 26.2986C13.2417 25.3592 12.4802 24.5977 11.5408 24.5977C10.6014 24.5977 9.83984 25.3592 9.83984 26.2986C9.83984 27.238 10.6014 27.9995 11.5408 27.9995Z" fill="#C2DAF0"/>
<path fill-rule="evenodd" clip-rule="evenodd" d="M16.4607 23.0796C17.4001 23.0796 18.1616 22.3181 18.1616 21.3787C18.1616 20.4393 17.4001 19.6777 16.4607 19.6777C15.5213 19.6777 14.7598 20.4393 14.7598 21.3787C14.7598 22.3181 15.5213 23.0796 16.4607 23.0796Z" fill="#C2DAF0"/>
</svg>
