<svg width="114" height="28" viewBox="0 0 114 28" fill="none" xmlns="http://www.w3.org/2000/svg">
<path d="M47.4714 6.98647V21.1969H44.8575V12.4709C44.8575 12.288 44.8608 12.0922 44.8674 11.8832C44.8805 11.6743 44.9003 11.4621 44.9266 11.2467L40.8331 18.9542C40.6095 19.3786 40.2643 19.5908 39.7974 19.5908H39.3831C39.153 19.5908 38.9491 19.5385 38.7716 19.4341C38.5941 19.3231 38.4527 19.1631 38.3475 18.9542L34.2343 11.2173C34.254 11.4458 34.2705 11.6678 34.2836 11.8832C34.2968 12.0922 34.3033 12.288 34.3033 12.4709V21.1969H31.6895V6.98647H33.9384C34.0633 6.98647 34.1751 6.98973 34.2737 6.99626C34.3724 7.00279 34.4579 7.02238 34.5302 7.05502C34.6091 7.08114 34.6782 7.12684 34.7373 7.19213C34.8031 7.25089 34.8656 7.33577 34.9248 7.44677L38.9294 15.027C39.0544 15.2555 39.1694 15.4905 39.2746 15.7321C39.3864 15.9737 39.4916 16.2218 39.5903 16.4764C39.6889 16.2153 39.7908 15.9606 39.8961 15.7125C40.0078 15.4644 40.1262 15.2261 40.2512 14.9976L44.2262 7.44677C44.2854 7.33577 44.3479 7.25089 44.4136 7.19213C44.4794 7.12684 44.5484 7.08114 44.6208 7.05502C44.6997 7.02238 44.7852 7.00279 44.8772 6.99626C44.9759 6.98973 45.0909 6.98647 45.2225 6.98647H47.4714Z" fill="white"/>
<path d="M55.8269 14.9584C55.8269 14.6777 55.7874 14.41 55.7085 14.1553C55.6362 13.9007 55.5178 13.6755 55.3534 13.4796C55.189 13.2837 54.9819 13.1303 54.732 13.0193C54.4821 12.9018 54.1829 12.843 53.8344 12.843C53.1834 12.843 52.6738 13.0258 52.3055 13.3914C51.9373 13.7571 51.6973 14.2794 51.5855 14.9584H55.8269ZM51.546 16.5646C51.6315 17.5113 51.9011 18.2033 52.3549 18.6408C52.8152 19.0782 53.4136 19.297 54.15 19.297C54.5249 19.297 54.8471 19.2545 55.1167 19.1696C55.3929 19.0782 55.6329 18.9803 55.8367 18.8758C56.0472 18.7648 56.2346 18.6669 56.399 18.582C56.5699 18.4906 56.7376 18.4449 56.902 18.4449C57.1124 18.4449 57.2768 18.5233 57.3952 18.68L58.1843 19.6593C57.895 19.9923 57.576 20.2698 57.2275 20.4918C56.879 20.7072 56.5173 20.8802 56.1425 21.0108C55.7677 21.1349 55.3896 21.2198 55.0082 21.2655C54.6268 21.3177 54.2585 21.3438 53.9035 21.3438C53.1933 21.3438 52.5291 21.2296 51.911 21.001C51.2994 20.766 50.7635 20.4232 50.3032 19.9727C49.8495 19.5157 49.4911 18.9509 49.2281 18.2784C48.965 17.6059 48.8335 16.8257 48.8335 15.9378C48.8335 15.2522 48.9453 14.6059 49.1689 13.9987C49.399 13.3915 49.7278 12.8626 50.1552 12.4121C50.5827 11.9616 51.1022 11.6058 51.7137 11.3446C52.3253 11.0769 53.0157 10.9431 53.7851 10.9431C54.4361 10.9431 55.0345 11.0475 55.5803 11.2565C56.1327 11.4589 56.6061 11.7559 57.0007 12.1477C57.4018 12.5394 57.7108 13.0226 57.9278 13.5971C58.1514 14.1651 58.2632 14.8148 58.2632 15.546C58.2632 15.7484 58.2534 15.9149 58.2336 16.0455C58.2139 16.1761 58.181 16.2805 58.135 16.3589C58.089 16.4372 58.0265 16.4927 57.9476 16.5254C57.8687 16.5515 57.7667 16.5646 57.6418 16.5646H51.546Z" fill="white"/>
<path d="M62.9539 21.3536C62.4936 21.3536 62.0859 21.2883 61.7308 21.1577C61.3757 21.0206 61.0765 20.828 60.8332 20.5799C60.5899 20.3318 60.4057 20.0315 60.2808 19.6789C60.1559 19.3263 60.0934 18.9281 60.0934 18.4841V13.0389H59.1366C58.9919 13.0389 58.867 12.9932 58.7618 12.9018C58.6632 12.8104 58.6138 12.6733 58.6138 12.4904V11.4327L60.2414 11.1389L60.7937 8.52406C60.8661 8.23025 61.0666 8.08335 61.3954 8.08335H62.8158V11.1585H65.4395V13.0389H62.8158V18.3078C62.8158 18.5886 62.8815 18.8105 63.0131 18.9738C63.1511 19.137 63.3451 19.2186 63.595 19.2186C63.7265 19.2186 63.8383 19.2056 63.9304 19.1794C64.0224 19.1468 64.1013 19.1141 64.1671 19.0815C64.2329 19.0423 64.292 19.0097 64.3447 18.9836C64.4038 18.9509 64.463 18.9346 64.5222 18.9346C64.6011 18.9346 64.6669 18.9542 64.7195 18.9934C64.7721 19.026 64.8247 19.0848 64.8773 19.1696L65.696 20.4624C65.3212 20.7562 64.897 20.9782 64.4236 21.1284C63.9501 21.2785 63.4602 21.3536 62.9539 21.3536Z" fill="white"/>
<path d="M71.82 16.9759C71.1558 17.0085 70.6034 17.0673 70.1629 17.1522C69.7223 17.2305 69.3705 17.335 69.1074 17.4656C68.851 17.5961 68.6669 17.7463 68.5551 17.9161C68.4499 18.0793 68.3973 18.2588 68.3973 18.4547C68.3973 18.8465 68.5058 19.1239 68.7228 19.2872C68.9463 19.4504 69.2554 19.532 69.6499 19.532C70.1037 19.532 70.4949 19.4537 70.8237 19.297C71.1591 19.1337 71.4912 18.8824 71.82 18.5429V16.9759ZM66.2766 12.5002C66.875 11.9649 67.5358 11.5666 68.2592 11.3054C68.9825 11.0377 69.765 10.9039 70.6067 10.9039C71.2117 10.9039 71.7509 11.0018 72.2244 11.1977C72.7044 11.3936 73.1088 11.6678 73.4376 12.0204C73.773 12.3664 74.0294 12.781 74.207 13.2641C74.3845 13.7473 74.4733 14.2761 74.4733 14.8507V21.1969H73.2305C72.974 21.1969 72.7767 21.161 72.6386 21.0892C72.5071 21.0174 72.3986 20.8672 72.3131 20.6387L72.0961 19.9923C71.8397 20.2143 71.5898 20.4102 71.3465 20.5799C71.1098 20.7497 70.8632 20.8933 70.6067 21.0108C70.3503 21.1218 70.0741 21.2067 69.7782 21.2655C69.4888 21.3242 69.1633 21.3536 68.8017 21.3536C68.3545 21.3536 67.9468 21.2948 67.5786 21.1773C67.2103 21.0598 66.8914 20.8868 66.6218 20.6583C66.3588 20.4232 66.1549 20.1327 66.0102 19.7866C65.8656 19.4406 65.7932 19.0423 65.7932 18.5918C65.7932 18.2197 65.8886 17.8475 66.0793 17.4754C66.27 17.1032 66.5955 16.767 67.0558 16.4666C67.5227 16.1598 68.1408 15.9084 68.9102 15.7125C69.6861 15.5101 70.656 15.3959 71.82 15.3697V14.8507C71.82 14.2174 71.6852 13.7538 71.4156 13.46C71.1459 13.1597 70.758 13.0095 70.2516 13.0095C69.8768 13.0095 69.5645 13.0552 69.3146 13.1466C69.0647 13.2315 68.8444 13.3262 68.6537 13.4306C68.4696 13.5286 68.2953 13.6232 68.1309 13.7146C67.9665 13.7995 67.7758 13.842 67.5588 13.842C67.3681 13.842 67.207 13.7962 67.0755 13.7048C66.9506 13.6069 66.8454 13.4927 66.7599 13.3621L66.2766 12.5002Z" fill="white"/>
<path d="M78.9262 18.5331C79.1826 18.8269 79.4588 19.0325 79.7547 19.1501C80.0572 19.2676 80.3695 19.3263 80.6918 19.3263C81.0271 19.3263 81.3296 19.2676 81.5992 19.1501C81.8754 19.026 82.1121 18.8334 82.3094 18.5722C82.5067 18.3045 82.6579 17.9585 82.7631 17.5341C82.8683 17.1097 82.921 16.5972 82.921 15.9965C82.921 15.4612 82.8782 15.0074 82.7927 14.6352C82.7072 14.2565 82.579 13.9464 82.408 13.7048C82.2436 13.4633 82.0398 13.287 81.7965 13.176C81.5532 13.065 81.2704 13.0095 80.9482 13.0095C80.5208 13.0095 80.1493 13.1042 79.8336 13.2935C79.5245 13.4763 79.2221 13.7473 78.9262 14.1064V18.5331ZM78.9262 12.2652C79.3273 11.8669 79.7711 11.547 80.2578 11.3054C80.7444 11.0638 81.2902 10.9431 81.8951 10.9431C82.4804 10.9431 83.0064 11.0606 83.4733 11.2956C83.9468 11.5241 84.3479 11.8539 84.6767 12.2848C85.0121 12.7157 85.2685 13.238 85.4461 13.8517C85.6302 14.4589 85.7222 15.1412 85.7222 15.8986C85.7222 16.7147 85.617 17.459 85.4066 18.1315C85.2028 18.7975 84.9101 19.3688 84.5287 19.8454C84.1473 20.322 83.6903 20.6909 83.1577 20.9521C82.6316 21.2132 82.0431 21.3438 81.3921 21.3438C81.0764 21.3438 80.7937 21.3112 80.5438 21.2459C80.2939 21.1871 80.0638 21.1022 79.8533 20.9912C79.6429 20.8803 79.4489 20.7497 79.2714 20.5995C79.0938 20.4428 78.9262 20.2698 78.7683 20.0804L78.6598 20.6876C78.6138 20.877 78.5382 21.0108 78.433 21.0892C78.3278 21.161 78.1864 21.1969 78.0088 21.1969H76.2038V6.59473H78.9262V12.2652Z" fill="white"/>
<path d="M92.3958 16.9759C91.7317 17.0085 91.1793 17.0673 90.7387 17.1522C90.2981 17.2305 89.9463 17.335 89.6833 17.4656C89.4268 17.5961 89.2427 17.7463 89.1309 17.9161C89.0257 18.0793 88.9731 18.2588 88.9731 18.4547C88.9731 18.8465 89.0816 19.1239 89.2986 19.2872C89.5222 19.4504 89.8313 19.532 90.2258 19.532C90.6795 19.532 91.0708 19.4537 91.3996 19.297C91.7349 19.1337 92.067 18.8824 92.3958 18.5429V16.9759ZM86.8524 12.5002C87.4508 11.9649 88.1117 11.5666 88.835 11.3054C89.5584 11.0377 90.3409 10.9039 91.1826 10.9039C91.7876 10.9039 92.3268 11.0018 92.8002 11.1977C93.2803 11.3936 93.6847 11.6678 94.0135 12.0204C94.3488 12.3664 94.6053 12.781 94.7828 13.2641C94.9604 13.7473 95.0492 14.2761 95.0492 14.8507V21.1969H93.8063C93.5499 21.1969 93.3526 21.161 93.2145 21.0892C93.083 21.0174 92.9745 20.8672 92.889 20.6387L92.672 19.9923C92.4155 20.2143 92.1657 20.4102 91.9224 20.5799C91.6856 20.7497 91.439 20.8933 91.1826 21.0108C90.9261 21.1218 90.6499 21.2067 90.354 21.2655C90.0647 21.3242 89.7392 21.3536 89.3775 21.3536C88.9304 21.3536 88.5227 21.2948 88.1544 21.1773C87.7862 21.0598 87.4673 20.8868 87.1976 20.6583C86.9346 20.4232 86.7308 20.1327 86.5861 19.7866C86.4414 19.4406 86.3691 19.0423 86.3691 18.5918C86.3691 18.2197 86.4644 17.8475 86.6551 17.4754C86.8458 17.1032 87.1713 16.767 87.6316 16.4666C88.0985 16.1598 88.7166 15.9084 89.486 15.7125C90.262 15.5101 91.2319 15.3959 92.3958 15.3697V14.8507C92.3958 14.2174 92.261 13.7538 91.9914 13.46C91.7218 13.1597 91.3338 13.0095 90.8275 13.0095C90.4527 13.0095 90.1403 13.0552 89.8904 13.1466C89.6406 13.2315 89.4203 13.3262 89.2296 13.4306C89.0454 13.5286 88.8712 13.6232 88.7068 13.7146C88.5424 13.7995 88.3517 13.842 88.1347 13.842C87.944 13.842 87.7829 13.7962 87.6514 13.7048C87.5264 13.6069 87.4212 13.4927 87.3357 13.3621L86.8524 12.5002Z" fill="white"/>
<path d="M103.102 13.176C103.03 13.287 102.954 13.3686 102.875 13.4208C102.803 13.4665 102.701 13.4894 102.57 13.4894C102.438 13.4894 102.303 13.4567 102.165 13.3914C102.027 13.3262 101.873 13.2576 101.702 13.1858C101.531 13.1074 101.333 13.0356 101.11 12.9703C100.893 12.905 100.64 12.8724 100.35 12.8724C99.9097 12.8724 99.5678 12.9638 99.3245 13.1466C99.0812 13.3229 98.9595 13.5579 98.9595 13.8517C98.9595 14.0541 99.0285 14.2239 99.1666 14.361C99.3047 14.4981 99.4856 14.6189 99.7091 14.7234C99.9393 14.8213 100.199 14.916 100.488 15.0074C100.778 15.0923 101.074 15.1869 101.376 15.2914C101.685 15.3959 101.984 15.5167 102.274 15.6538C102.563 15.7909 102.819 15.9639 103.043 16.1728C103.273 16.3752 103.457 16.6233 103.595 16.9171C103.734 17.2044 103.803 17.5537 103.803 17.965C103.803 18.4547 103.711 18.9085 103.526 19.3263C103.349 19.7377 103.086 20.0935 102.737 20.3938C102.389 20.6942 101.955 20.9292 101.435 21.099C100.916 21.2687 100.317 21.3536 99.6401 21.3536C99.2916 21.3536 98.9464 21.321 98.6044 21.2557C98.2625 21.1969 97.937 21.112 97.6279 21.001C97.3188 20.8835 97.0295 20.7497 96.7599 20.5995C96.4903 20.4493 96.2568 20.2861 96.0596 20.1098L96.6908 19.1011C96.7632 18.9836 96.852 18.8922 96.9572 18.8269C97.069 18.7616 97.2103 18.7289 97.3813 18.7289C97.5457 18.7289 97.697 18.7714 97.835 18.8563C97.9731 18.9346 98.1277 19.0227 98.2986 19.1207C98.4696 19.2121 98.6702 19.3002 98.9003 19.3851C99.137 19.4635 99.4297 19.5026 99.7782 19.5026C100.041 19.5026 100.268 19.4732 100.459 19.4145C100.649 19.3557 100.804 19.2774 100.922 19.1794C101.041 19.075 101.126 18.9607 101.179 18.8367C101.238 18.7061 101.268 18.5722 101.268 18.4351C101.268 18.2131 101.195 18.0336 101.051 17.8965C100.913 17.7528 100.728 17.6288 100.498 17.5243C100.275 17.4199 100.015 17.3252 99.719 17.2403C99.4231 17.1554 99.1206 17.0608 98.8115 16.9563C98.5091 16.8518 98.2099 16.7278 97.9139 16.5841C97.6246 16.4405 97.3649 16.261 97.1347 16.0455C96.9111 15.8235 96.727 15.5526 96.5824 15.2326C96.4443 14.9127 96.3752 14.5242 96.3752 14.0672C96.3752 13.6493 96.4574 13.2543 96.6218 12.8822C96.7862 12.5035 97.0328 12.1705 97.3616 11.8832C97.6904 11.596 98.0981 11.3675 98.5847 11.1977C99.0779 11.0279 99.6467 10.9431 100.291 10.9431C101.014 10.9431 101.672 11.0606 102.264 11.2956C102.856 11.5307 103.342 11.8375 103.724 12.2162L103.102 13.176Z" fill="white"/>
<path d="M111.563 14.9584C111.563 14.6777 111.524 14.41 111.445 14.1553C111.372 13.9007 111.254 13.6755 111.09 13.4796C110.925 13.2837 110.718 13.1303 110.468 13.0193C110.218 12.9018 109.919 12.843 109.571 12.843C108.92 12.843 108.41 13.0258 108.042 13.3914C107.673 13.7571 107.433 14.2794 107.322 14.9584H111.563ZM107.282 16.5646C107.368 17.5113 107.637 18.2033 108.091 18.6408C108.551 19.0782 109.15 19.297 109.886 19.297C110.261 19.297 110.583 19.2545 110.853 19.1696C111.129 19.0782 111.369 18.9803 111.573 18.8758C111.783 18.7648 111.971 18.6669 112.135 18.582C112.306 18.4906 112.474 18.4449 112.638 18.4449C112.849 18.4449 113.013 18.5233 113.131 18.68L113.92 19.6593C113.631 19.9923 113.312 20.2698 112.964 20.4918C112.615 20.7072 112.253 20.8802 111.879 21.0108C111.504 21.1349 111.126 21.2198 110.744 21.2655C110.363 21.3177 109.995 21.3438 109.64 21.3438C108.929 21.3438 108.265 21.2296 107.647 21.001C107.036 20.766 106.5 20.4232 106.039 19.9727C105.586 19.5157 105.227 18.9509 104.964 18.2784C104.701 17.6059 104.57 16.8257 104.57 15.9378C104.57 15.2522 104.681 14.6059 104.905 13.9987C105.135 13.3915 105.464 12.8626 105.891 12.4121C106.319 11.9616 106.838 11.6058 107.45 11.3446C108.061 11.0769 108.752 10.9431 109.521 10.9431C110.172 10.9431 110.771 11.0475 111.316 11.2565C111.869 11.4589 112.342 11.7559 112.737 12.1477C113.138 12.5394 113.447 13.0226 113.664 13.5971C113.888 14.1651 113.999 14.8148 113.999 15.546C113.999 15.7484 113.989 15.9149 113.97 16.0455C113.95 16.1761 113.917 16.2805 113.871 16.3589C113.825 16.4372 113.763 16.4927 113.684 16.5254C113.605 16.5515 113.503 16.5646 113.378 16.5646H107.282Z" fill="white"/>
<path fill-rule="evenodd" clip-rule="evenodd" d="M1.71369 8.32179C2.66014 8.32179 3.42738 7.56026 3.42738 6.62086C3.42738 5.68146 2.66014 4.91992 1.71369 4.91992C0.767246 4.91992 0 5.68146 0 6.62086C0 7.56026 0.767246 8.32179 1.71369 8.32179Z" fill="white"/>
<path fill-rule="evenodd" clip-rule="evenodd" d="M1.71369 13.2407C2.66014 13.2407 3.42738 12.4792 3.42738 11.5398C3.42738 10.6004 2.66014 9.83887 1.71369 9.83887C0.767246 9.83887 0 10.6004 0 11.5398C0 12.4792 0.767246 13.2407 1.71369 13.2407Z" fill="white"/>
<path fill-rule="evenodd" clip-rule="evenodd" d="M6.67072 13.2407C7.61717 13.2407 8.38441 12.4792 8.38441 11.5398C8.38441 10.6004 7.61717 9.83887 6.67072 9.83887C5.72428 9.83887 4.95703 10.6004 4.95703 11.5398C4.95703 12.4792 5.72428 13.2407 6.67072 13.2407Z" fill="white"/>
<path fill-rule="evenodd" clip-rule="evenodd" d="M21.5399 8.32179C22.4863 8.32179 23.2536 7.56026 23.2536 6.62086C23.2536 5.68146 22.4863 4.91992 21.5399 4.91992C20.5934 4.91992 19.8262 5.68146 19.8262 6.62086C19.8262 7.56026 20.5934 8.32179 21.5399 8.32179Z" fill="white"/>
<path fill-rule="evenodd" clip-rule="evenodd" d="M16.5828 13.2407C17.5293 13.2407 18.2965 12.4792 18.2965 11.5398C18.2965 10.6004 17.5293 9.83887 16.5828 9.83887C15.6364 9.83887 14.8691 10.6004 14.8691 11.5398C14.8691 12.4792 15.6364 13.2407 16.5828 13.2407Z" fill="white"/>
<path fill-rule="evenodd" clip-rule="evenodd" d="M11.6258 18.1607C12.5722 18.1607 13.3395 17.3991 13.3395 16.4597C13.3395 15.5203 12.5722 14.7588 11.6258 14.7588C10.6794 14.7588 9.91211 15.5203 9.91211 16.4597C9.91211 17.3991 10.6794 18.1607 11.6258 18.1607Z" fill="white"/>
<path fill-rule="evenodd" clip-rule="evenodd" d="M21.5399 13.2407C22.4863 13.2407 23.2536 12.4792 23.2536 11.5398C23.2536 10.6004 22.4863 9.83887 21.5399 9.83887C20.5934 9.83887 19.8262 10.6004 19.8262 11.5398C19.8262 12.4792 20.5934 13.2407 21.5399 13.2407Z" fill="white"/>
<path fill-rule="evenodd" clip-rule="evenodd" d="M1.71369 18.1607C2.66014 18.1607 3.42738 17.3991 3.42738 16.4597C3.42738 15.5203 2.66014 14.7588 1.71369 14.7588C0.767246 14.7588 0 15.5203 0 16.4597C0 17.3991 0.767246 18.1607 1.71369 18.1607Z" fill="white"/>
<path fill-rule="evenodd" clip-rule="evenodd" d="M21.5399 18.1607C22.4863 18.1607 23.2536 17.3991 23.2536 16.4597C23.2536 15.5203 22.4863 14.7588 21.5399 14.7588C20.5934 14.7588 19.8262 15.5203 19.8262 16.4597C19.8262 17.3991 20.5934 18.1607 21.5399 18.1607Z" fill="white"/>
<path fill-rule="evenodd" clip-rule="evenodd" d="M1.71369 23.0806C2.66014 23.0806 3.42738 22.319 3.42738 21.3796C3.42738 20.4402 2.66014 19.6787 1.71369 19.6787C0.767246 19.6787 0 20.4402 0 21.3796C0 22.319 0.767246 23.0806 1.71369 23.0806Z" fill="white"/>
<path fill-rule="evenodd" clip-rule="evenodd" d="M21.5399 23.0806C22.4863 23.0806 23.2536 22.319 23.2536 21.3796C23.2536 20.4402 22.4863 19.6787 21.5399 19.6787C20.5934 19.6787 19.8262 20.4402 19.8262 21.3796C19.8262 22.319 20.5934 23.0806 21.5399 23.0806Z" fill="white"/>
<path fill-rule="evenodd" clip-rule="evenodd" d="M6.67072 8.32179C7.61717 8.32179 8.38441 7.56026 8.38441 6.62086C8.38441 5.68146 7.61717 4.91992 6.67072 4.91992C5.72428 4.91992 4.95703 5.68146 4.95703 6.62086C4.95703 7.56026 5.72428 8.32179 6.67072 8.32179Z" fill="#5A6072"/>
<path fill-rule="evenodd" clip-rule="evenodd" d="M11.6258 8.32179C12.5722 8.32179 13.3395 7.56026 13.3395 6.62086C13.3395 5.68146 12.5722 4.91992 11.6258 4.91992C10.6794 4.91992 9.91211 5.68146 9.91211 6.62086C9.91211 7.56026 10.6794 8.32179 11.6258 8.32179Z" fill="#5A6072"/>
<path fill-rule="evenodd" clip-rule="evenodd" d="M11.6258 3.40187C12.5722 3.40187 13.3395 2.64033 13.3395 1.70093C13.3395 0.761534 12.5722 0 11.6258 0C10.6794 0 9.91211 0.761534 9.91211 1.70093C9.91211 2.64033 10.6794 3.40187 11.6258 3.40187Z" fill="#5A6072"/>
<path fill-rule="evenodd" clip-rule="evenodd" d="M11.6258 13.2407C12.5722 13.2407 13.3395 12.4792 13.3395 11.5398C13.3395 10.6004 12.5722 9.83887 11.6258 9.83887C10.6794 9.83887 9.91211 10.6004 9.91211 11.5398C9.91211 12.4792 10.6794 13.2407 11.6258 13.2407Z" fill="#5A6072"/>
<path fill-rule="evenodd" clip-rule="evenodd" d="M16.5828 8.32179C17.5293 8.32179 18.2965 7.56026 18.2965 6.62086C18.2965 5.68146 17.5293 4.91992 16.5828 4.91992C15.6364 4.91992 14.8691 5.68146 14.8691 6.62086C14.8691 7.56026 15.6364 8.32179 16.5828 8.32179Z" fill="#5A6072"/>
<path fill-rule="evenodd" clip-rule="evenodd" d="M6.67072 18.1607C7.61717 18.1607 8.38441 17.3991 8.38441 16.4597C8.38441 15.5203 7.61717 14.7588 6.67072 14.7588C5.72428 14.7588 4.95703 15.5203 4.95703 16.4597C4.95703 17.3991 5.72428 18.1607 6.67072 18.1607Z" fill="#5A6072"/>
<path fill-rule="evenodd" clip-rule="evenodd" d="M16.5828 18.1607C17.5293 18.1607 18.2965 17.3991 18.2965 16.4597C18.2965 15.5203 17.5293 14.7588 16.5828 14.7588C15.6364 14.7588 14.8691 15.5203 14.8691 16.4597C14.8691 17.3991 15.6364 18.1607 16.5828 18.1607Z" fill="#5A6072"/>
<path fill-rule="evenodd" clip-rule="evenodd" d="M6.67072 23.0806C7.61717 23.0806 8.38441 22.319 8.38441 21.3796C8.38441 20.4402 7.61717 19.6787 6.67072 19.6787C5.72428 19.6787 4.95703 20.4402 4.95703 21.3796C4.95703 22.319 5.72428 23.0806 6.67072 23.0806Z" fill="#5A6072"/>
<path fill-rule="evenodd" clip-rule="evenodd" d="M11.6258 23.0806C12.5722 23.0806 13.3395 22.319 13.3395 21.3796C13.3395 20.4402 12.5722 19.6787 11.6258 19.6787C10.6794 19.6787 9.91211 20.4402 9.91211 21.3796C9.91211 22.319 10.6794 23.0806 11.6258 23.0806Z" fill="#5A6072"/>
<path fill-rule="evenodd" clip-rule="evenodd" d="M11.6258 27.9995C12.5722 27.9995 13.3395 27.238 13.3395 26.2986C13.3395 25.3592 12.5722 24.5977 11.6258 24.5977C10.6794 24.5977 9.91211 25.3592 9.91211 26.2986C9.91211 27.238 10.6794 27.9995 11.6258 27.9995Z" fill="#5A6072"/>
<path fill-rule="evenodd" clip-rule="evenodd" d="M16.5828 23.0806C17.5293 23.0806 18.2965 22.319 18.2965 21.3796C18.2965 20.4402 17.5293 19.6787 16.5828 19.6787C15.6364 19.6787 14.8691 20.4402 14.8691 21.3796C14.8691 22.319 15.6364 23.0806 16.5828 23.0806Z" fill="#5A6072"/>
</svg>
